<?xml version="1.0" standalone="no"?>
<!DOCTYPE svg PUBLIC "-//W3C//DTD SVG 20010904//EN"
 "http://www.w3.org/TR/2001/REC-SVG-20010904/DTD/svg10.dtd">
<svg version="1.0" xmlns="http://www.w3.org/2000/svg"
 width="500.000000pt" height="500.000000pt" viewBox="0 0 500.000000 500.000000"
 preserveAspectRatio="xMidYMid meet">

<g transform="translate(0.000000,500.000000) scale(0.100000,-0.100000)"
fill="#840C96" stroke="none">
<path d="M1369 3197 c-57 -21 -97 -54 -126 -105 l-28 -47 0 -495 0 -495 28
-57 c16 -33 49 -76 77 -101 83 -74 173 -83 275 -28 180 98 785 457 808 479 72
68 86 167 37 264 -45 90 -80 115 -505 358 -392 224 -409 233 -468 236 -37 3
-76 -1 -98 -9z m249 -243 l22 -15 0 -418 c0 -311 -3 -420 -12 -429 -17 -17
-63 -15 -79 4 -11 13 -13 94 -11 427 2 365 4 413 19 429 20 22 32 23 61 2z
m-164 -146 c14 -19 16 -64 16 -288 0 -224 -2 -269 -16 -288 -18 -26 -50 -28
-76 -5 -17 15 -18 37 -18 290 0 170 4 282 10 294 15 27 64 25 84 -3z m644
-116 c8 -11 12 -62 12 -171 0 -130 -3 -157 -17 -173 -20 -22 -51 -23 -75 -1
-16 14 -18 34 -18 175 0 146 2 160 21 179 22 22 55 19 77 -9z m144 -59 c15
-13 18 -32 18 -113 0 -104 -7 -120 -50 -120 -43 0 -50 16 -50 121 0 90 2 99
22 113 28 20 37 20 60 -1z m-443 -7 c8 -9 11 -48 9 -112 -3 -97 -3 -99 -30
-108 -22 -8 -32 -6 -48 9 -17 16 -20 30 -20 110 0 57 4 95 12 103 16 16 63 15
77 -2z m143 -63 c25 -22 23 -68 -3 -86 -37 -27 -81 0 -81 50 0 46 49 68 84 36z"/>
<path d="M3480 3201 c-14 -4 -204 -110 -423 -236 -278 -158 -411 -240 -438
-269 -107 -111 -118 -254 -26 -346 20 -20 510 -311 804 -477 106 -60 198 -52
283 24 28 25 61 68 77 101 l28 57 0 496 0 496 -30 49 c-43 68 -105 105 -187
110 -35 2 -74 0 -88 -5z m-37 -249 c15 -16 17 -63 17 -431 1 -300 -2 -417 -11
-427 -14 -17 -61 -18 -77 -2 -9 9 -12 118 -12 429 l0 418 22 15 c29 21 41 20
61 -2z m187 -141 c6 -12 10 -123 10 -292 0 -239 -2 -275 -17 -291 -22 -25 -59
-23 -77 4 -14 19 -16 64 -16 288 0 224 2 269 16 288 20 28 69 30 84 3z m-640
-122 c6 -10 10 -86 10 -170 0 -128 -3 -155 -17 -171 -20 -22 -51 -23 -75 -1
-16 14 -18 34 -18 173 0 163 5 184 45 192 27 6 44 -1 55 -23z m-172 -55 c20
-14 22 -23 22 -113 0 -105 -7 -121 -50 -121 -43 0 -50 16 -50 119 0 74 4 98
17 113 20 22 32 23 61 2z m460 -6 c8 -8 12 -46 12 -103 0 -80 -3 -94 -20 -110
-16 -15 -26 -17 -48 -9 -27 9 -27 11 -30 108 -2 64 1 103 9 112 14 17 61 18
77 2z m-157 -58 c13 -7 19 -21 19 -43 0 -40 -15 -57 -50 -57 -14 0 -31 5 -38
12 -17 17 -15 58 5 80 18 20 36 23 64 8z"/>
</g>
</svg>
